<?xml version="1.0" encoding="utf-8"?>
<!-- Generated by IcoMoon.io -->
<!DOCTYPE svg PUBLIC "-//W3C//DTD SVG 1.1//EN" "http://www.w3.org/Graphics/SVG/1.1/DTD/svg11.dtd">
<svg version="1.1" xmlns="http://www.w3.org/2000/svg" xmlns:xlink="http://www.w3.org/1999/xlink" width="768" height="768" viewBox="0 0 768 768">
<g id="icomoon-ignore">
</g>
<path d="M384 640.5q105 0 180.75-75.75t75.75-180.75-75.75-180.75-180.75-75.75-180.75 75.75-75.75 180.75 75.75 180.75 180.75 75.75zM384 64.5q132 0 225.75 93.75t93.75 225.75-93.75 225.75-225.75 93.75-225.75-93.75-93.75-225.75 93.75-225.75 225.75-93.75zM466.5 256.5l45 45-82.5 82.5 82.5 82.5-45 45-82.5-82.5-82.5 82.5-45-45 82.5-82.5-82.5-82.5 45-45 82.5 82.5z"></path>
</svg>
