<?xml version="1.0" encoding="utf-8"?>
<!-- Generated by IcoMoon.io -->
<!DOCTYPE svg PUBLIC "-//W3C//DTD SVG 1.1//EN" "http://www.w3.org/Graphics/SVG/1.1/DTD/svg11.dtd">
<svg version="1.1" xmlns="http://www.w3.org/2000/svg" xmlns:xlink="http://www.w3.org/1999/xlink" width="1024" height="1024" viewBox="0 0 1024 1024">
<g id="icomoon-ignore">
</g>
<path d="M640 85.333q78 0 149.167 30.5t122.5 81.833 81.833 122.5 30.5 149.167q0 72.667-26.5 139.667t-72 117.333-108.667 83.5-134.167 41.167v-86q71.667-10.333 130.167-51.833t92.167-105.667 33.667-138.167q0-60.667-23.667-116t-63.667-95.333-95.333-63.667-116-23.667q-55.333 0-106.5 19.833t-90 53.833-65 81.333-33.833 101h-88.667q-70.667 0-120.667 50t-50 120.667q0 38.667 15.167 71.667t39.833 54.167 54.833 33 60.833 11.833h170.667v85.333h-170.667q-69.667 0-128.5-34.333t-93.167-93.167-34.333-128.5 34.333-128.5 93.167-93.167 128.5-34.333h22q26.333-74.333 79.333-132.167t126.833-90.833 155.833-33zM554.667 426.667q17.667 0 30.333 12.667l128 128q12.333 12.333 12.333 30 0 18.333-12.167 30.5t-30.5 12.167q-18 0-30.333-12.333l-55-55.333v281q0 17.667-12.5 30.167t-30.167 12.5-30.167-12.5-12.5-30.167v-281l-55 55.333q-12.333 12.333-30.333 12.333-17.667 0-30.167-12.5t-12.5-30.167q0-17 12.333-30l128-128q12.667-12.667 30.333-12.667z"></path>
</svg>
