<svg id="Layer_1" data-name="Layer 1" xmlns="http://www.w3.org/2000/svg" viewBox="0 0 22 24"><defs><style>.cls-1{fill:#1d1d1b;}</style></defs><title>user</title><path class="cls-1" d="M23,24H1V20.1a3.05,3.05,0,0,1,1.44-2.53l5.74-3.43,1,1.72-5.7,3.4A1.09,1.09,0,0,0,3,20.1V22H21V20.1a1,1,0,0,0-.45-0.81l-5.76-3.44,1-1.72,5.7,3.4A2.91,2.91,0,0,1,23,20.1V24Z" transform="translate(-1 0)"/><path class="cls-1" d="M12,17a7,7,0,0,1-7-7V7A7,7,0,0,1,19,7v3A7,7,0,0,1,12,17ZM12,2A5,5,0,0,0,7,7v3a5,5,0,1,0,10,0V7A5,5,0,0,0,12,2Z" transform="translate(-1 0)"/></svg>