<svg xmlns="http://www.w3.org/2000/svg" viewBox="0 0 35.1 21.69"><defs><style>.a{fill:#fff;}</style></defs><title>os</title><path class="a" d="M18.84,18.56A10.78,10.78,0,0,1,11,21.66a10.77,10.77,0,0,1-7.83-3.11A10.36,10.36,0,0,1,0,10.83,10.36,10.36,0,0,1,3.18,3.1,10.77,10.77,0,0,1,11,0a10.78,10.78,0,0,1,7.83,3.1A10.36,10.36,0,0,1,22,10.83,10.36,10.36,0,0,1,18.84,18.56Zm-1.59-7.71a6.86,6.86,0,0,0-1.8-4.79,5.75,5.75,0,0,0-4.43-2,5.75,5.75,0,0,0-4.42,2,6.86,6.86,0,0,0-1.8,4.79,6.81,6.81,0,0,0,1.8,4.77,5.77,5.77,0,0,0,4.42,2,5.77,5.77,0,0,0,4.43-2A6.81,6.81,0,0,0,17.25,10.85Z"/><path class="a" d="M24.85,4.67a1.81,1.81,0,0,0-.67,1.47A1.66,1.66,0,0,0,25,7.59a15.08,15.08,0,0,0,3.81,1.27,10.73,10.73,0,0,1,4.64,2.21,5.45,5.45,0,0,1,1.65,4.29A5.66,5.66,0,0,1,33,19.94a8.43,8.43,0,0,1-5.57,1.76,12.88,12.88,0,0,1-9-3.69l2.79-3.42q3.39,3,6.27,3a3.29,3.29,0,0,0,2-.55,1.78,1.78,0,0,0,.73-1.5,1.75,1.75,0,0,0-.78-1.5,10.19,10.19,0,0,0-3.09-1.13A13.43,13.43,0,0,1,21,10.6a5.35,5.35,0,0,1-1.69-4.38,5.43,5.43,0,0,1,2.15-4.6A8.63,8.63,0,0,1,26.85,0a12.88,12.88,0,0,1,4.2.72,11.25,11.25,0,0,1,3.66,2L32.34,6.18A9.24,9.24,0,0,0,26.7,4.11,2.82,2.82,0,0,0,24.85,4.67Z"/></svg>
