<svg xmlns="http://www.w3.org/2000/svg" viewBox="0 0 101.22 22.95"><defs><style>.a{fill:#fff;}</style></defs><title>viewer</title><path class="a" d="M10.41,15.09L15.75,1.74h5.07l-8.43,21h-4L0,1.74H5.07Z"/><path class="a" d="M22.48,4.52a2.55,2.55,0,0,1-.76-1.87A2.55,2.55,0,0,1,22.48.77a2.68,2.68,0,0,1,3.75,0A2.55,2.55,0,0,1,27,2.64a2.55,2.55,0,0,1-.77,1.88A2.68,2.68,0,0,1,22.48,4.52Zm4.13,18.2h-4.5V6.57h4.5V22.71Z"/><path class="a" d="M44.1,20.37A9,9,0,0,1,37.69,23a8.5,8.5,0,0,1-6.08-2.27,8,8,0,0,1-2.4-6.08,7.83,7.83,0,0,1,2.44-6.06A8.25,8.25,0,0,1,37.44,6.3a8.35,8.35,0,0,1,5.65,2,6.91,6.91,0,0,1,2.33,5.52v2.4H33.66A3.21,3.21,0,0,0,35,18.39a4.41,4.41,0,0,0,2.64.84,5.18,5.18,0,0,0,3.9-1.59ZM39.78,10.8A3.41,3.41,0,0,0,37.51,10a4.05,4.05,0,0,0-2.44.81A3.1,3.1,0,0,0,33.78,13h7.08A3.2,3.2,0,0,0,39.78,10.8Z"/><path class="a" d="M56.16,22.71H51.51L46,6.57h4.65l3.15,9.75L57,6.57h4.35l3.15,9.75,3.15-9.75H72.3L66.81,22.71H62.13l-3-8.79Z"/><path class="a" d="M88,20.37A9,9,0,0,1,81.65,23a8.5,8.5,0,0,1-6.08-2.27,8,8,0,0,1-2.4-6.08,7.84,7.84,0,0,1,2.45-6.06A8.25,8.25,0,0,1,81.39,6.3a8.35,8.35,0,0,1,5.65,2,6.91,6.91,0,0,1,2.33,5.52v2.4H77.61A3.2,3.2,0,0,0,79,18.39a4.41,4.41,0,0,0,2.64.84,5.18,5.18,0,0,0,3.9-1.59ZM83.73,10.8A3.41,3.41,0,0,0,81.46,10a4.05,4.05,0,0,0-2.44.81A3.1,3.1,0,0,0,77.73,13h7.08A3.2,3.2,0,0,0,83.73,10.8Z"/><path class="a" d="M100.35,10.53a3.41,3.41,0,0,0-3,1.43,6.48,6.48,0,0,0-1,3.77v7h-4.5V6.57h4.5V8.7A7.57,7.57,0,0,1,98.53,7a5.91,5.91,0,0,1,2.65-.72l0,4.23h-0.87Z"/></svg>
